# xmcd
#
# Track frame offsets:
#	150
#	16885
#	34570
#	53348
#	67283
#	87870
#	107925
#	126030
#	143780
#	161590
#	178138
#	193370
#	211890
#	231580
#	251760
#	279840
#	292035
#	307565
#
# Disc length: 4335
#
# Revision: 5
# Processed by: cddbd v1.5.1PL0 Copyright (c) Steve Scherf et al.
# Submitted via: Grip 2.94
# Normalized: r3:DSETVAR1,TDELIM( - ),TSWAP
#
DISCID=0410ed12
DTITLE=Various Artist - Radiottanta [Disk 2]
DYEAR=1900
DGENRE=
TTITLE0=Howard Jones - What Is Love
TTITLE1=Talk Talk - It's My Life
TTITLE2=Tears For Fears - Everybody Wants To Rule The World
TTITLE3=Living In A Box - Living In A Box
TTITLE4=Communards - Don't Leave Me This Way
TTITLE5=John Waite - Missing You
TTITLE6=Cyindi Lauper - Time After Time
TTITLE7=Cars - Drive
TTITLE8=Cock Robin - The Promise You Made
TTITLE9=Mike Oldfield - Moonlight Shadow
TTITLE10=Nik Kershaw - I Won't Let The Sun Go Down On Me
TTITLE11=Janet Jackson - Nasty
TTITLE12=Curiosity Killed The Cat - Down To Earth
TTITLE13=Yes - Owner Of A Lonely Heart
TTITLE14=Grace Jones - Slave To The Rhythm
TTITLE15=Soft Cell - Tainted Love
TTITLE16=Psychedelic Furs - Heaven
TTITLE17=De Barge - Rhythm Of The Night
EXTD=
EXTT0=
EXTT1=
EXTT2=
EXTT3=
EXTT4=
EXTT5=
EXTT6=
EXTT7=
EXTT8=
EXTT9=
EXTT10=
EXTT11=
EXTT12=
EXTT13=
EXTT14=
EXTT15=
EXTT16=
EXTT17=
PLAYORDER=
